<svg width="24" height="55" viewBox="0 0 24 55" fill="none" xmlns="http://www.w3.org/2000/svg">
    <path d="M0 49.3249V54.1827C0 54.7322 0.531772 55.1249 1.05703 54.9633L1.40987 54.8548C4.44518 53.9209 7.66911 53.7799 10.7744 54.4453C11.9405 54.6951 13.1454 54.7034 14.3148 54.4695L16.0648 54.1196C17.6782 53.7969 18.4184 51.9148 17.4571 50.5797L12.8456 44.1755C11.7821 42.6985 11.5067 40.7953 12.108 39.0775L20.4907 15.129C20.7611 14.3567 21.2307 13.6694 21.8521 13.1369L23.6755 11.5741C23.965 11.326 24.0735 10.9263 23.9492 10.5659L20.4136 0.313524C20.2427 -0.182004 19.5099 -0.0592223 19.5099 0.46494V5.72943C19.5099 6.8597 19.2521 7.97508 18.756 8.99071L0.848117 45.6559C0.290062 46.7985 0 48.0533 0 49.3249Z" fill="#2E384D"/>
</svg>
